PathFileType	4	(X/Y/Z)	D:\TRACE\v60_Jaco2_6-2-23\BothDRS_Motion3_7-v60.trc
DataRate	CameraRate	NumFrames	NumMarkers	Units	OrigDataRate	OrigDataStartFrame	OrigNumFrames
100.00	100.00	      35	9	mm	100.00	3501	      7000
Frame#	Time	front left toe			Front right toe			aft left toe			aft right toe			Arm			FL body			FR body			AL Body			AR Body			
		X1	Y1	Z1	X2	Y2	Z2	X3	Y3	Z3	X4	Y4	Z4	X5	Y5	Z5	X6	Y6	Z6	X7	Y7	Z7	X8	Y8	Z8	X9	Y9	Z9	

3501	35.000	-59.29778	41.88040	-149.39745	292.06641	14.02845	-134.36455	-100.61687	8.90916	473.79968	281.64188	47.70515	489.67477	159.86760	1070.70154	-560.76044	49.24486	504.51852	-322.64258	207.11116	499.29944	-314.61279	12.24799	561.35608	619.51776	163.70996	546.69720	626.84460	
3502	35.010	-59.82665	34.51393	-149.25865	291.69757	14.06920	-133.95206	-100.97730	8.35512	473.94745	281.77765	39.91464	489.80490	159.45003	1071.09717	-560.10413	49.32319	504.52435	-322.51599	207.15622	499.49258	-314.36795	11.54843	560.78253	619.58923	163.00864	546.38275	627.18536	
3503	35.020	-60.64308	27.33388	-148.85393	291.41129	14.09582	-133.71924	-101.22707	7.76976	473.90958	281.26511	32.36343	489.32605	159.24062	1071.41492	-559.68561	49.48664	504.47668	-322.28525	207.23438	499.66165	-314.11722	10.88285	560.19641	619.84631	162.50722	545.67413	627.03894	
3504	35.030	-61.62904	21.05322	-148.80556	290.89566	14.10475	-133.71663	-101.20303	6.91028	473.90515	280.59781	25.30203	489.09128	158.75781	1071.48499	-559.14612	49.65068	504.52408	-322.09644	207.32657	499.86508	-313.68875	10.41842	559.59106	620.11401	162.19890	545.12170	627.60120	
3505	35.040	-62.28476	17.71865	-149.94077	290.47479	14.05972	-133.70375	-101.44717	6.59196	473.91122	279.64993	18.76582	489.05042	158.23276	1071.42163	-558.64697	49.72844	504.73465	-322.06281	207.46739	499.97256	-313.42856	10.25163	559.20197	620.29205	161.46652	544.90106	627.78046	
3506	35.050	-64.28976	19.40115	-151.75160	290.12979	14.18499	-133.58601	-102.06492	6.47730	473.92194	278.77832	11.66456	489.14780	158.09557	1071.41003	-558.26520	49.94074	505.11325	-321.57397	207.58153	500.19440	-313.34470	10.13429	558.59375	620.76697	161.23967	544.39868	628.12115	
3507	35.060	-65.08066	17.29163	-150.99850	289.66040	14.62951	-133.34882	-103.02798	6.42926	474.20181	278.00293	8.12108	486.93854	157.89072	1071.67798	-557.81171	49.43651	506.15576	-321.49789	208.19858	500.76337	-313.00876	9.96080	558.06958	620.92267	161.13582	543.46796	628.72943	
3508	35.070	-64.92451	17.18890	-149.95300	288.92520	14.96632	-133.45464	-103.37555	6.33708	474.26236	278.21085	5.83891	488.57834	158.14699	1072.26721	-557.00269	49.62432	506.83871	-320.92667	208.30823	501.65955	-312.66629	9.59880	558.52094	621.25775	161.26260	543.98938	628.70343	
3509	35.080	-65.11366	19.16321	-149.75250	288.73318	15.57067	-133.06848	-103.64559	6.88966	473.99951	278.47137	5.47042	486.58643	159.03445	1073.58508	-556.01141	49.57226	506.91422	-320.33945	207.49405	502.10178	-311.99243	8.75249	559.92279	621.62714	161.17615	545.82574	629.45880	
3510	35.090	-65.32171	18.03462	-149.57524	288.03232	18.78739	-132.42192	-102.40197	9.29461	474.01428	277.85251	4.95509	489.69632	159.68144	1075.36279	-555.39063	49.61559	507.01776	-320.01428	207.61971	502.06277	-311.65585	8.76016	561.28577	621.97699	160.39809	547.40594	629.77277	
3511	35.100	-65.65209	16.46551	-148.67929	283.44232	21.66123	-129.53659	-100.69813	13.24545	475.92218	277.04047	4.49697	488.26016	160.19669	1076.81311	-555.17169	49.58599	507.75861	-320.07019	207.29309	502.92944	-311.56342	8.43538	561.60840	622.12311	159.12785	547.89075	629.82721	
3512	35.110	-66.42197	17.67538	-149.25233	280.64679	28.22201	-127.34298	-97.42107	20.50102	476.49860	276.68707	4.15344	489.18320	160.25018	1077.44153	-555.24884	49.29772	508.93472	-320.00656	207.31389	503.85400	-311.50815	8.15790	560.92151	622.31256	158.43086	547.37054	629.89966	
3513	35.120	-67.00904	18.17989	-149.46774	278.69415	37.67645	-127.58775	-95.72279	29.45977	475.94019	275.53687	2.75253	487.69424	159.93916	1077.19507	-554.73328	49.30845	509.32495	-320.11502	207.08600	504.46707	-311.63812	7.99332	560.13727	622.13800	159.74562	546.13702	630.03961	
3514	35.130	-67.81688	17.97521	-149.40778	278.99994	50.36392	-129.38406	-96.11170	41.04252	474.07462	275.25333	3.09121	488.97189	159.74765	1077.20667	-554.41492	49.01561	510.07101	-320.16559	206.64865	504.88089	-311.90411	8.01202	559.60571	622.13623	159.26891	545.54492	629.70624	
3515	35.140	-68.39471	17.19016	-148.72281	280.66772	63.27464	-131.61621	-97.73291	52.99090	471.85745	274.94229	2.67885	489.11267	158.92044	1077.73950	-553.92365	48.36728	510.29562	-320.35635	205.84604	505.10974	-312.11023	8.54291	558.67822	622.18469	159.84915	544.41364	629.36279	
3516	35.150	-69.02714	17.52962	-148.82083	282.73117	76.33730	-133.54449	-99.92208	65.42819	469.62817	274.77936	2.03606	489.06448	157.77153	1078.43323	-553.29633	47.57717	510.40268	-320.57388	205.09467	505.16003	-312.58575	8.62800	557.27374	622.01044	161.29173	542.85522	629.57056	
3517	35.160	-69.64634	17.55318	-148.80188	284.74609	89.05262	-135.40822	-101.64436	77.92379	467.97406	274.62323	1.43367	488.99478	157.30655	1078.97034	-552.82190	46.65852	510.44186	-320.97232	205.30997	504.97290	-313.01050	9.45669	556.27063	621.94763	163.08017	541.46808	628.91266	
3518	35.170	-70.43707	17.33774	-148.58241	286.95123	101.13609	-136.80394	-101.97646	89.94406	467.12827	274.13348	1.09993	489.05661	156.17514	1079.94751	-551.92676	45.91743	510.35980	-321.08444	204.54877	504.75677	-313.47818	10.05385	555.12665	621.68872	162.79105	540.55682	628.96216	
3519	35.180	-71.00425	17.33569	-148.35233	288.33188	112.32694	-138.18884	-100.57722	101.15115	466.21747	273.05823	0.54220	489.18033	155.82071	1080.49866	-551.54065	45.44209	510.39246	-321.06302	203.74451	504.77847	-313.95627	10.56587	554.28033	621.49353	163.78859	539.60095	628.53796	
3520	35.190	-71.53186	17.46731	-148.18089	288.63123	122.42075	-139.82770	-99.68682	112.34985	465.63593	272.63129	0.13098	489.17673	154.88040	1081.10596	-551.28259	44.33909	510.71399	-321.59821	202.21219	504.91751	-314.36636	11.16412	553.51617	621.38892	164.49829	538.57373	627.75903	
3521	35.200	-72.18858	17.70682	-148.21614	289.61526	131.66322	-141.36484	-97.77814	121.54327	464.74033	272.32889	-0.17984	489.19180	153.84708	1081.26819	-551.22662	43.49952	510.86771	-321.89536	201.71925	504.76477	-314.73334	12.08230	552.68390	621.34161	164.77548	537.76233	627.63550	
3522	35.210	-72.75906	17.80576	-148.14137	289.84070	139.68707	-143.43417	-95.26099	129.07431	463.68912	271.84436	-0.51217	489.18353	152.96861	1080.94495	-551.43170	43.14282	510.90445	-322.08075	200.72192	504.80450	-315.13696	12.31758	552.11237	621.35779	165.73743	536.84113	627.30957	
3523	35.220	-73.52243	17.97351	-147.87024	291.70462	146.29134	-145.39951	-93.84088	134.30630	463.34061	271.32910	-1.10632	489.15887	152.28398	1080.67200	-551.57587	42.05684	511.08475	-322.26263	200.68839	504.75565	-315.90097	13.52347	551.38904	621.11023	166.59975	536.28662	626.82440	
3524	35.230	-74.15150	17.94007	-147.67995	293.37503	149.71548	-146.84863	-92.42667	137.17883	463.05884	270.94293	-1.44690	489.22748	151.93481	1080.54419	-551.80219	41.41884	511.01974	-322.36075	199.98885	504.78110	-316.35547	14.53691	551.17944	620.97394	167.08298	536.08929	626.55090	
3525	35.240	-74.67976	18.07907	-147.58429	294.84253	149.56964	-148.21385	-91.42402	136.93340	463.09195	270.05658	-1.97780	489.19824	151.01472	1080.68604	-552.21783	40.33260	511.22992	-322.76318	198.89394	504.88168	-316.84317	15.67764	551.15369	620.85175	167.59196	535.78375	625.99860	
3526	35.250	-75.19508	18.23889	-147.47331	296.98587	145.96175	-148.53452	-89.78515	134.17259	463.18509	269.67035	-2.21741	489.11346	149.99896	1080.86646	-552.55054	39.43013	511.41962	-322.95776	197.41486	505.06268	-317.10388	16.40234	550.99561	620.58978	168.54836	535.51996	625.28918	
3527	35.260	-75.72259	18.24327	-147.34250	297.15244	140.65781	-149.54860	-88.22104	131.14803	463.89676	269.51514	-2.41816	489.08313	148.68823	1081.12805	-552.88806	39.39968	511.21387	-322.89197	197.03448	504.93994	-317.76074	17.43718	551.18378	620.35571	169.19577	535.55811	624.72369	
3528	35.270	-76.63160	18.51823	-146.95831	298.04025	134.70377	-150.72185	-85.99741	126.60302	464.29578	269.00610	-2.77742	489.16470	147.48618	1081.23584	-553.41766	38.44259	511.41351	-323.46201	196.23376	505.18845	-318.62997	18.38827	551.15240	620.01367	170.81921	535.40356	624.17957	
3529	35.280	-77.13982	18.56900	-146.82005	298.85913	128.40198	-151.91960	-83.57379	121.26537	464.70367	268.19516	-3.18894	489.10040	146.22668	1081.67529	-553.72083	37.66635	511.68958	-323.71628	196.04230	505.31067	-319.58734	19.31754	550.90363	619.49548	171.78966	535.11469	623.45990	
3530	35.290	-77.63950	18.76367	-146.73569	299.09964	121.67179	-154.11212	-81.24599	114.71935	464.55905	267.60489	-3.47737	489.09180	145.27776	1081.99182	-554.16589	36.90770	512.27496	-324.62146	195.56044	505.40726	-320.34668	20.57251	550.56976	619.00378	172.76192	534.89642	622.85382	
3531	35.300	-78.12893	18.88791	-146.76764	300.34875	114.53300	-156.66040	-79.27164	107.15733	463.75510	267.10876	-3.70231	489.04343	144.37856	1082.23303	-554.78009	36.42604	512.08801	-325.01654	195.16655	505.47870	-321.15619	21.52164	550.37115	618.31702	174.04874	534.59167	621.50928	
3532	35.310	-78.68835	18.97463	-146.59778	301.50375	106.76355	-159.87709	-76.72645	98.10029	462.71179	266.59470	-4.03695	489.07880	143.87102	1082.43188	-555.34521	35.79833	512.21014	-325.53375	194.55559	505.33331	-322.36362	22.75552	550.04602	617.68231	172.57642	534.81189	621.08405	
3533	35.320	-79.43459	18.83630	-146.28807	303.40070	98.83489	-162.90526	-74.49463	89.06493	461.11536	266.22375	-4.45247	488.96753	143.10182	1082.76514	-556.10980	34.77225	512.22070	-326.72412	192.82449	505.45782	-323.21442	23.91727	549.49225	617.15497	175.88515	533.88666	619.95166	
3534	35.330	-80.07331	18.83970	-146.17802	304.64896	90.15866	-166.38812	-70.75406	79.07764	459.26123	265.75879	-4.83820	488.81619	143.01181	1083.05066	-556.96112	34.44195	512.05206	-327.38330	191.89903	505.78790	-324.24130	24.96019	549.64465	617.04242	176.66783	533.48730	618.67090	
3535	35.340	-80.73659	18.79243	-146.04985	305.17584	80.97143	-169.42607	-68.34270	70.53604	456.56909	264.77969	-5.39161	488.71396	142.45407	1083.53186	-557.75513	33.56680	512.20068	-328.58884	191.67264	505.59454	-325.46445	26.36950	549.13953	615.96246	178.28630	532.97119	617.66351	
